<svg width="26" height="26" xmlns="http://www.w3.org/2000/svg" xmlns:xlink="http://www.w3.org/1999/xlink" overflow="hidden"><g transform="translate(-402 -730)"><path d="M426.907 753.263C426.97 753.393 426.999 753.535 426.999 753.685 426.999 754.043 426.875 754.359 426.623 754.631L425.715 755.561C425.473 755.833 425.178 755.969 424.824 755.969L424.759 755.969C424.396 755.924 424.085 755.754 423.836 755.462L416.699 745.915C415.84 746.695 415.038 747.379 414.295 747.968 413.545 748.553 412.84 749.061 412.172 749.486L412.719 754.06 412.719 754.223C412.719 754.583 412.604 754.883 412.375 755.121L411.891 755.626C411.652 755.877 411.347 755.999 410.984 755.999L410.918 755.999C410.512 755.955 410.204 755.788 409.994 755.492L406.781 751.065 402.484 747.688C402.179 747.42 402.019 747.094 402 746.712L402 746.651C402 746.31 402.12 746.001 402.36 745.719L402.828 745.249C403.038 744.973 403.332 744.844 403.71 744.854 403.794 744.854 403.847 744.868 403.866 744.889L408.258 745.409C408.668 744.725 409.153 743.993 409.722 743.22 410.295 742.441 410.95 741.622 411.694 740.75L402.553 733.308C402.226 733.035 402.068 732.716 402.068 732.347L402.068 732.28C402.068 731.943 402.186 731.63 402.428 731.337L403.319 730.404C403.601 730.156 403.899 730.03 404.211 730.03L404.417 730.03C404.492 730.03 404.564 730.054 404.626 730.095L417.216 734.869 419.585 732.444C420.318 731.68 421.156 731.085 422.11 730.65 423.059 730.217 423.934 730 424.727 730 425.477 730 426.05 730.2 426.436 730.602 426.642 730.796 426.789 731.047 426.875 731.354 426.957 731.654 426.999 731.997 426.999 732.375 426.999 733.202 426.796 734.111 426.394 735.098 425.991 736.085 425.414 736.955 424.664 737.704L422.309 740.179 426.907 753.263Z" fill="#C0504D" fill-rule="evenodd"/></g></svg>